<?xml version="1.0" encoding="utf-8"?>
<!-- Generator: Adobe Illustrator 19.2.1, SVG Export Plug-In . SVG Version: 6.00 Build 0)  -->
<svg version="1.1" id="Layer_1" xmlns="http://www.w3.org/2000/svg" xmlns:xlink="http://www.w3.org/1999/xlink" x="0px" y="0px"
	 viewBox="0 0 1200 357" style="enable-background:new 0 0 1200 357;" xml:space="preserve">
<style type="text/css">
	.st0{fill:#FDFDFD;}
	.st1{fill:#DB310D;}
</style>
<path class="st0" d="M315.2,279c0,24.5,0,49,0,73.5c0,1.9-0.5,2.2-2.3,2.2c-8.6-0.1-17.2-0.1-25.8,0c-1.7,0-1.9-0.5-1.9-2
	c0.1-3.7,0-7.5,0-11.2c0-0.4,0-1.1-0.2-1.3c-0.5-0.4-0.9,0.2-1.3,0.5c-9,6-18.5,10.8-29.1,12.6c-26.6,4.7-49.9-2-69.1-21.4
	c-15.6-15.8-22.4-35.1-21.5-57.2c0.9-22.3,10.9-40.2,27.6-54.5c11.7-10,25.6-15.2,40.8-16.7c18.7-1.9,35.7,3,51.1,13.6
	c0.4,0.3,0.9,1.1,1.5,0.7c0.6-0.4,0.3-1.1,0.3-1.7c0-3.8,0-7.6,0-11.4c0-1.3,0.4-1.6,1.7-1.6c8.8,0,17.6,0.1,26.4,0
	c1.6,0,1.9,0.5,1.9,2C315.2,229.8,315.2,254.4,315.2,279z M285.3,278.9c0.6-26.2-23.6-45.6-45.9-45.8c-23.9-0.2-45.5,21.1-45.7,46.2
	c-0.2,25.2,22.5,45.9,47,45.6C262.7,324.8,285.7,304.3,285.3,278.9z"/>
<path class="st0" d="M-0.3,283.7c-0.4-43.6,29.1-73.1,60.5-78.9c30.7-5.7,55.8,4.2,75.6,28.2c2.3,2.8,2.3,2.8-0.6,4.9
	c-6.7,5-13.4,9.9-20,14.9c-1.3,0.9-1.9,0.9-2.9-0.4c-7.1-9.6-16.2-16.2-28.1-18.4c-18.2-3.3-33.2,2.5-44.6,16.9
	C24.5,270,25.5,298,48.9,315.8c14.7,11.2,39.7,13.5,57.5-3.5c2.3-2.2,4.6-4.6,6.5-7.1c0.7-0.9,1.1-1.1,2.1-0.3
	c7.3,5.5,14.6,11,21.9,16.4c0.9,0.7,0.9,1.2,0.3,2c-2.5,3.6-5.6,6.6-8.7,9.7c-11.9,11.7-26.2,19-42.7,21.1
	c-24.9,3.1-46.4-4.3-64.4-21.9C6.6,317.5,0,299.5-0.3,283.7z"/>
<path class="st0" d="M571.8,293.9c-18.8,0-37.7,0-56.5,0c-2.1,0-2.1,0-1.3,2c9.4,23.3,35.4,34.7,58.5,25.6
	c5.4-2.1,10.1-5.3,14.4-9.1c1-0.9,1.6-1.1,2.6,0c6.2,6.3,12.5,12.6,18.8,18.8c0.9,0.9,1.1,1.4,0,2.4c-11.8,10.9-25.5,18.2-41.5,20.2
	c-24.5,3.1-46-3.7-63.9-21.1c-11.7-11.5-19.1-25.4-21.6-41.5c-3.8-23.6,2.4-44.5,18.1-62.6c11.9-13.7,26.8-22,44.6-24.7
	c25.8-3.8,48.2,3.4,66.4,22.3c14.6,15.1,22.1,33.3,21.5,54.5c-0.1,3.7-0.6,7.4-1,11.2c-0.2,1.5-0.6,2-2.2,1.9
	c-9.3-0.1-18.5,0-27.8,0C591.2,293.9,581.5,293.9,571.8,293.9z M555.9,264L555.9,264c13.4,0,26.8,0,40.2,0c3.3,0,2.8-0.1,1.8-2.5
	c-8.1-20.4-30.1-32.4-52-27.1c-15.2,3.6-25.6,13.4-31.8,27.7c-0.7,1.8-0.4,2,1.3,2C528.8,264,542.3,264,555.9,264z"/>
<path class="st1" d="M599.7,0c8.3-0.7,15.7,1.6,22.4,6.3c6.1,4.3,10,10.3,12.9,17.1c2.7,6.4,4.5,13.1,5.6,19.9
	c2.2,13.2,2.5,26.4,1.8,39.8c-0.4,7.4-0.7,14.9-1.1,22.4c-0.1,1.4,0.2,2,1.8,1.7c2.2-0.6,4.3-1.1,6.4-1.9c9-3.6,18.4-5.9,28.1-7
	c8-0.9,16-0.9,23.9,0.3c11.1,1.7,21.2,6,30.3,12.6c9.3,6.7,16.6,15.3,23.1,24.5c3.9,5.5,8,11,10.5,17.4c2.7,6.8,2.9,13.7,0.4,20.5
	c-0.7,2.1-2,4-4.3,4.9c-1.2,0.5-1,1.4-1,2.2c0.1,4.4-0.2,8.7-1.8,12.9c-2.6,6.8-9.2,8.4-15,4.3c-4.4-3-7.4-7.1-10-11.7
	c-5.1-9.2-11.8-17-19.9-23.6c-5.2-4.3-10.9-7.6-17.4-9.6c-1.7-0.5-3.5-0.9-5.2-1c-8.4-0.3-16.7,0.2-25.1,1.3
	c-6.5,0.9-12.9,2.2-19.1,4.3c-6.7,2.3-13.1,5.3-19.1,9.3c-4.3,2.8-8.3,5.9-12.8,8.4c-3.8,2.2-7.8,3.5-12.2,3.7
	c-1.7,0.1-1-1.1-0.9-1.7c1-5,1.3-10.1,1.9-15.2c0.6-5.1,0.5-10.2,0.5-15.3c0-11.9,0.2-23.9,0.9-35.8c0.4-8,1.7-16,1.6-24.1
	c0-6.4-0.1-12.8-1.8-19.2c-1.3-4.8-3-9.3-6.9-12.7c-2.1-1.9-4.4-2.8-7.2-3.1c-6.8-0.6-12.5,2.4-18.3,5.4C564,62,559.2,70.1,554,77.9
	c-3.5,5.3-6.5,11-8.3,17.2c-1.8,6.3-3.3,12.8-4.5,19.3c-0.8,4.3-1.7,8.6-2.5,12.9c-1,5.5-1.9,11-3,16.4c-1.3,6.5-2.7,12.9-4.3,19.3
	c-1.3,5.1-4.3,9.5-5.6,14.5c-1.2,4.6-2.4,9.2-4.3,13.6c-1.7,3.9-3.9,7.5-7.8,9.5c-5.9,3-13.4,0.1-16.5-5.9c-2.8-5.6-2.6-11.5-2-17.3
	c1.1-12.4,3.4-24.7,6.1-36.8c1.6-7.2,3.3-14.4,5.2-21.5c2.1-8,4.1-15.9,6.6-23.8c4.5-14.5,9.1-29,18-41.5c4.1-5.8,6.9-12.3,11-18
	c8-11.2,17-21.5,29.3-28.3c5.9-3.3,12.2-5.6,18.9-6.9C593.5,0,596.6,0.1,599.7,0z M631.2,92.4c0.2-16.6-1-31.8-6.5-46.5
	c-2.6-6.9-6.1-13-11.9-17.7c-8.3-6.9-18.2-7.9-28.3-6.7c-13.4,1.6-24.8,7.8-34.5,16.9c-13.5,12.6-22.7,27.9-28.5,45.4
	c-8,24.1-14.3,48.7-19,73.6c-1.7,8.9-3.1,18-3.1,27.2c0,2.4,0.4,4.8,1.3,7.1c1.3,3,3.5,5,6.9,5.5c3.4,0.4,5.6-1.4,7.4-3.9
	c0.5-0.7,0.9-1.4,1.3-2.2c3.6-7,5.2-14.7,6.7-22.3c3-15.1,5.3-30.2,8.8-45.2c2.5-10.8,5.6-21.4,9.8-31.7c3.9-9.5,9.3-18.1,15.4-26.4
	c7.1-9.7,16.7-15.4,28.1-17.9c7.2-1.6,13.5,0.4,18.4,6.1c3.2,3.8,5,8.5,6.1,13.3c2.3,10.1,2.3,20.3,1.3,30.6
	c-1.1,11.3-1.8,22.6-1.9,34c-0.1,13.2,0.2,26.5-1.5,39.7c-0.3,2.5-0.2,2.6,2.1,1.6c0.6-0.2,1.2-0.6,1.8-0.8
	c4.2-2.1,7.9-4.9,11.7-7.5c8-5.5,16.6-9.7,25.9-12.4c12.6-3.6,25.5-4.7,38.5-4.8c6.2-0.1,12,1.5,17.6,4.4
	c12.9,6.7,22.7,16.7,30.4,28.9c2.7,4.3,4.9,8.8,8.9,12.2c2,1.7,4.1,3.6,7,2.6c2.8-1,3.4-3.8,4-6.4c1.5-7.2,0.3-14-3.4-20.3
	c-4.6-7.8-9.7-15.3-15.5-22.2c-9.8-11.8-21.7-20.6-36.7-24.8c-9-2.6-18.1-3.2-27.5-2.4c-8.9,0.7-17.6,2.1-25.9,5.2
	c-4.8,1.8-9.5,3.8-14.6,4.5c-1.7,0.2-2.2,0-2.1-1.9C630.4,115.1,631.3,103.2,631.2,92.4z"/>
<path class="st0" d="M415.2,294.1c0,19.5,0,39,0,58.5c0,1.7-0.4,2.2-2.1,2.2c-8.7-0.1-17.4-0.1-26.2,0c-1.7,0-2-0.6-2-2.1
	c0-39.1,0-78.1,0.1-117.2c0-1.9-0.5-2.4-2.4-2.3c-9.4,0.1-18.8,0-28.1,0.1c-1.5,0-1.9-0.4-1.9-1.9c0.1-8.8,0.1-17.6,0-26.4
	c0-1.4,0.4-1.7,1.7-1.7c9.5,0.1,19,0,28.5,0.1c1.6,0,2.1-0.3,2.1-2c-0.1-5.2-0.2-10.4,0-15.6c0.9-18.9,8.5-34.6,23-46.7
	c8.7-7.2,19.1-10.5,30.3-11.5c3.3-0.3,6.7-0.4,10-0.4c1.1,0,1.4,0.3,1.4,1.4c0,9.1,0,18.2,0,27.4c0,1.2-0.4,1.5-1.5,1.5
	c-5.8,0-11.5,0.6-16.9,2.9c-7.3,3.1-11.7,8.6-14,16.2c-2.1,6.9-2.2,13.8-2.1,20.8c0,1.9-0.8,4.4,0.3,5.5c1.2,1.2,3.7,0.4,5.7,0.4
	c8.7,0,17.4,0,26.2,0c1.3,0,1.7,0.3,1.7,1.6c0,8.8-0.1,17.6,0,26.4c0,1.5-0.3,2-1.9,2c-10-0.1-20,0-29.9-0.1c-1.7,0-2,0.4-2,2.1
	C415.2,254.8,415.2,274.5,415.2,294.1z"/>
<path class="st0" d="M886.9,207.6c4.7-2.2,9.2-4,14-5c21.9-4.6,41.1,0.7,57.6,15.9c0.4,0.4,0.8,0.7,1.1,1.1c0.7,0.9,1.2,0.8,2,0
	c4-4,8.4-7.5,13.3-10.4c11.7-6.8,24.4-9.1,37.8-8c25.7,2.1,52.8,23.6,55.8,56.5c0.3,2.8,0.3,5.6,0.3,8.5c0,29,0,57.9,0,86.9
	c0,3.5-0.4,3.9-3.8,3.9c-9.1,0-18.2,0-27.4,0c-3,0-3.4-0.5-3.4-3.4c0-28.9,0-57.8,0-86.7c0-4.7-0.4-9.3-2-13.7
	c-4-10.3-16.8-19.1-30.4-17.4c-11.7,1.5-23.6,13.6-24,27.1c-0.4,15.3-0.1,30.5-0.2,45.7c-0.1,15,0,29.9,0,44.9
	c0,3.1-0.4,3.5-3.5,3.5c-9.1,0-18.1,0-27.2,0c-3.5,0-4-0.4-4-3.9c0-29.9,0-59.9,0-89.8c0-11.9-6.3-20.3-16.4-25.1
	c-10.9-5.2-22.7-3.5-32.1,6.5c-5.4,5.8-7.7,12.5-7.7,20.2c0,29.6,0,59.1,0,88.7c0,2.9-0.5,3.4-3.5,3.4c-9.3,0-18.5,0-27.8,0
	c-2.8,0-3.4-0.6-3.4-3.3c0-49.8,0-99.5,0-149.3c0-2.8,0.6-3.4,3.5-3.4c9.3,0,18.5,0,27.8,0c2.8,0,3.3,0.6,3.3,3.3
	C886.9,205.2,886.9,206.2,886.9,207.6z M856.8,279C856.8,279,856.7,279,856.8,279c0,23.9,0,47.8-0.1,71.7c0,1.7,0.8,1.8,2,1.8
	c7.2,0,14.3-0.1,21.5,0c2,0,2.2-0.7,2.2-2.4c0-28.5-0.1-57,0-85.5c0-7.8,2.1-14.7,7-21c11.3-14.3,30.3-16.2,43.4-7.1
	c9.5,6.6,14.8,15.5,14.8,27.5c-0.1,28.8,0,57.5-0.1,86.3c0,1.7,0.4,2.2,2.2,2.2c7.1-0.1,14.2-0.1,21.3,0c1.6,0,2.3-0.2,2.3-2.1
	c-0.1-14.9-0.1-29.8,0-44.7c0-13.6,0.1-27.2,0-40.8c0-9.5,3.5-17.5,10-24.4c9.7-10.3,26.4-12.2,38-5.5c9.6,5.5,15.8,13.4,17.1,24.7
	c0.7,6.5,0.4,13,0.4,19.5c0,23.8,0,47.6,0,71.3c0,1.6,0.4,2.1,2.1,2.1c7.2-0.1,14.4-0.1,21.7,0c1.3,0,1.9-0.2,1.9-1.7
	c0-29.6,0-59.1-0.1-88.7c0-6.6-1.3-13.1-3.7-19.2c-6.7-16.9-18.7-28.6-35.9-34.5c-15.3-5.2-30.4-3.9-44.8,3.2
	c-6.4,3.2-11.9,7.6-16.7,12.8c-1.9,2.1-2.8,2.1-4.8,0c-2.2-2.3-4.6-4.5-7.1-6.5c-14.2-11.3-30.2-14.7-47.9-11.4
	c-5.9,1.1-11.4,3.4-16.7,6.1c-2.4,1.2-4,0.2-4.1-2.4c0-1.1-0.1-2.2,0-3.3c0.1-1.3-0.4-1.6-1.7-1.6c-7.1,0.1-14.2,0-21.3,0
	c-2.6,0-2.6,0-2.6,2.7C856.8,231.8,856.8,255.4,856.8,279z"/>
<path class="st0" d="M761.2,296.2c-18.4,0-36.9,0-55.3,0c-2.2,0-2.2,0-1.3,1.9c6.7,13.4,17.6,21.3,32.2,23.7
	c13.6,2.2,25.5-2,35.8-10.9c2.7-2.4,3.1-2.4,5.6,0.2c6.4,6.3,12.7,12.7,19.1,19c2,2,2,3.2-0.1,5.1c-12.4,11.5-26.7,19.2-43.6,21.2
	c-28,3.3-51.7-5.6-70.1-27.1c-13.1-15.3-19.1-33.5-18.4-53.8c1.1-33.2,25.7-65.4,61.4-72.8c26.5-5.5,50.1,0.9,70,19.4
	c15.7,14.7,23.9,32.9,24.7,54.4c0.2,5.8-0.4,11.5-1.4,17.3c-0.3,1.8-1.3,2.4-3,2.4c-4.3,0-8.5,0-12.8,0
	C789.8,296.2,775.5,296.2,761.2,296.2z M757.5,291.7c18.8,0,37.5,0,56.3,0c1.4,0,2-0.4,2.2-1.8c0.9-7.4,1.3-14.9,0-22.3
	c-3.1-16.9-10.6-31.4-23.4-43c-18-16.2-39.1-21.9-62.7-17.9c-16.4,2.8-30.2,10.7-41.3,23.3c-9.6,10.9-15.9,23.3-18.1,37.8
	c-2.2,14.9-0.2,29.3,6.4,43c8.9,18.3,23,31,42.1,37.9c12.4,4.5,25.2,5,38,2.8c13.5-2.4,25.2-8.6,35.4-17.7c0.8-0.7,1.1-1.1,0.2-2
	c-5.4-5.3-10.7-10.6-16-16c-1-1-1.5-0.9-2.6,0c-5.8,4.7-12.2,8.2-19.4,9.9c-14,3.2-26.9,0.7-38.7-7.4c-8.2-5.7-14-13.3-17.2-22.8
	c-0.4-1.2-0.4-2.4,0.7-3.2c0.8-0.6,1.8-0.4,2.7-0.4C720.5,291.7,739,291.7,757.5,291.7z"/>
<path class="st0" d="M1200,240.9c0,37.5,0,75,0,112.5c0,3-0.5,3.6-3.5,3.6c-9.2,0-18.4,0-27.6,0c-3.1,0-3.6-0.5-3.6-3.5
	c0-73.5,0-147,0-220.4c0-1.8,0-3.5,0-5.3s0.9-2.7,2.6-2.7c9.8,0,19.7,0,29.5,0c1.6,0,2.5,0.9,2.5,2.6c0,1.1,0,2.1,0,3.2
	C1200,167.5,1200,204.2,1200,240.9L1200,240.9z M1195.5,240.9c0-36.5,0-72.9,0-109.3c0-1.6-0.3-2.2-2-2.1c-6.2,0.1-12.3,0-18.5,0
	c-5.1,0-5.1,0-5.1,5.1c0,71.1,0,142.2,0,213.4c0,0.9,0.1,1.9,0,2.8c-0.2,1.5,0.4,1.9,1.9,1.9c6.9-0.1,13.8,0,20.7,0
	c3.1,0,3.1,0,3.1-3.1C1195.5,313.2,1195.5,277.1,1195.5,240.9z"/>
<path class="st0" d="M1134.3,279c0,24.9,0,49.8,0,74.7c0,2.9-0.5,3.3-3.3,3.3c-9.3,0-18.6,0-28,0c-2.7,0-3.3-0.7-3.3-3.4
	c0-49.4,0-98.8,0-148.2c0-0.8,0-1.6,0.1-2.4c0.2-1.3,0.9-2.2,2.4-2.2c10,0,20,0,29.9,0c1.5,0,2.2,0.9,2.3,2.4c0,1.1,0,2.2,0,3.3
	C1134.4,230.8,1134.4,254.9,1134.3,279C1134.4,279,1134.4,279,1134.3,279z M1104.3,278.8c0,23.9,0,47.8,0,71.7c0,1.7,0.6,2,2.1,2
	c5.8-0.1,11.7,0,17.5-0.1c1.9,0,4.3,0.9,5.5-0.3c1.3-1.3,0.5-3.7,0.5-5.7c0-46.2,0-92.4,0-138.6c0-1.9-0.4-2.4-2.4-2.4
	c-6.9,0.2-13.9,0.1-20.9,0c-1.9,0-2.4,0.3-2.4,2.3C1104.3,231.4,1104.3,255.1,1104.3,278.8z"/>
<path class="st0" d="M1117.1,194.9c-10.7,0.5-17.3-9.1-17.3-17.3c0-10.9,8.6-17.1,18.1-17.3c9.2-0.1,16.5,8,16.6,17.9
	C1134.5,188.4,1124.9,195.4,1117.1,194.9z M1117.3,190.4c6.1,0.4,12.8-5.5,12.6-12.1c-0.2-7.6-5.6-13.7-12.2-13.5
	c-7.4,0.2-13.7,5.1-13.4,13.1C1104.5,185.1,1110,190.5,1117.3,190.4z"/>
<path class="st0" d="M631.2,92.4c0.1,10.8-0.9,22.7-1.5,34.6c-0.1,1.9,0.4,2.2,2.1,1.9c5.1-0.7,9.8-2.7,14.6-4.5
	c8.3-3.1,17.1-4.5,25.9-5.2c9.3-0.8,18.5-0.1,27.5,2.4c15,4.2,26.8,13,36.7,24.8c5.8,6.9,10.9,14.4,15.5,22.2
	c3.7,6.3,4.9,13.1,3.4,20.3c-0.6,2.6-1.2,5.4-4,6.4c-2.9,1.1-5-0.9-7-2.6c-3.9-3.3-6.1-7.9-8.9-12.2c-7.7-12.2-17.4-22.2-30.4-28.9
	c-5.5-2.8-11.3-4.4-17.6-4.4c-13,0.1-25.9,1.2-38.5,4.8c-9.3,2.6-18,6.9-25.9,12.4c-3.8,2.6-7.6,5.4-11.7,7.5
	c-0.6,0.3-1.2,0.6-1.8,0.8c-2.4,1-2.5,0.9-2.1-1.6c1.7-13.2,1.4-26.5,1.5-39.7c0.1-11.3,0.8-22.7,1.9-34c1-10.2,0.9-20.5-1.3-30.6
	c-1.1-4.8-2.9-9.4-6.1-13.3c-4.8-5.8-11.2-7.8-18.4-6.1c-11.5,2.5-21,8.2-28.1,17.9c-6.1,8.3-11.5,16.9-15.4,26.4
	c-4.2,10.3-7.3,20.9-9.8,31.7c-3.5,14.9-5.7,30.1-8.8,45.2c-1.5,7.6-3.1,15.3-6.7,22.3c-0.4,0.7-0.8,1.5-1.3,2.2
	c-1.8,2.6-4,4.3-7.4,3.9c-3.4-0.4-5.6-2.5-6.9-5.5c-1-2.2-1.3-4.7-1.3-7.1c-0.1-9.2,1.4-18.2,3.1-27.2c4.7-25,11-49.5,19-73.6
	c5.8-17.5,15-32.8,28.5-45.4c9.8-9.1,21.2-15.3,34.5-16.9c10.1-1.2,19.9-0.2,28.3,6.7c5.7,4.7,9.3,10.9,11.9,17.7
	C630.2,60.6,631.4,75.8,631.2,92.4z"/>
<path class="st1" d="M856.8,279c0-23.6,0-47.3,0-70.9c0-2.7,0-2.7,2.6-2.7c7.1,0,14.2,0,21.3,0c1.3,0,1.8,0.4,1.7,1.6
	c-0.1,1.1,0,2.2,0,3.3c0.1,2.6,1.8,3.7,4.1,2.4c5.3-2.8,10.8-5,16.7-6.1c17.6-3.3,33.7,0.1,47.9,11.4c2.5,2,4.8,4.2,7.1,6.5
	c2,2,2.9,2,4.8,0c4.8-5.3,10.3-9.7,16.7-12.8c14.5-7.1,29.6-8.4,44.8-3.2c17.2,5.9,29.2,17.5,35.9,34.5c2.4,6.1,3.7,12.6,3.7,19.2
	c0,29.6,0,59.1,0.1,88.7c0,1.5-0.6,1.7-1.9,1.7c-7.2,0-14.4-0.1-21.7,0c-1.7,0-2.1-0.5-2.1-2.1c0-23.8,0.1-47.6,0-71.3
	c0-6.5,0.4-13-0.4-19.5c-1.3-11.3-7.5-19.2-17.1-24.7c-11.6-6.7-28.3-4.8-38,5.5c-6.5,6.9-10,14.9-10,24.4c0,13.6,0,27.2,0,40.8
	c0,14.9,0,29.8,0,44.7c0,1.9-0.7,2.1-2.3,2.1c-7.1-0.1-14.2-0.1-21.3,0c-1.8,0-2.2-0.5-2.2-2.2c0-28.8,0-57.5,0.1-86.3
	c0-12-5.3-20.9-14.8-27.5c-13.1-9.1-32.1-7.2-43.4,7.1c-4.9,6.3-7,13.2-7,21c0,28.5,0,57,0,85.5c0,1.7-0.3,2.4-2.2,2.4
	c-7.2-0.1-14.3,0-21.5,0c-1.3,0-2-0.1-2-1.8C856.7,326.8,856.7,303,856.8,279C856.7,279,856.8,279,856.8,279z"/>
<path class="st1" d="M757.5,291.7c-18.5,0-37,0-55.5,0c-0.9,0-1.9-0.2-2.7,0.4c-1.1,0.8-1.2,1.9-0.7,3.2c3.3,9.5,9,17.1,17.2,22.8
	c11.8,8.2,24.7,10.7,38.7,7.4c7.3-1.7,13.7-5.2,19.4-9.9c1-0.8,1.6-0.9,2.6,0c5.3,5.4,10.6,10.7,16,16c0.9,0.9,0.6,1.3-0.2,2
	c-10.2,9-21.9,15.3-35.4,17.7c-12.9,2.2-25.6,1.7-38-2.8c-19.1-6.9-33.2-19.6-42.1-37.9c-6.7-13.6-8.6-28-6.4-43
	c2.1-14.4,8.5-26.9,18.1-37.8c11.1-12.5,24.9-20.4,41.3-23.3c23.6-4.1,44.7,1.7,62.7,17.9c12.8,11.6,20.3,26.1,23.4,43
	c1.3,7.4,0.9,14.9,0,22.3c-0.2,1.4-0.7,1.8-2.2,1.8C795.1,291.7,776.3,291.7,757.5,291.7z M743.2,266.2c5.9,0,11.8,0,17.7,0
	c8.1,0,16.1,0,24.2,0c2.8,0,3.7-1.3,2.7-3.9c-0.4-1.1-0.8-2.2-1.3-3.3c-7.6-15.6-20-24.8-37.2-27.5c-22.3-3.5-43.5,11.2-50.5,30.3
	c-1.2,3.2-0.4,4.4,3.1,4.4C715.6,266.2,729.4,266.2,743.2,266.2z"/>
<path class="st1" d="M1195.5,240.9c0,36.2,0,72.4,0,108.5c0,3.1,0,3.1-3.1,3.1c-6.9,0-13.8,0-20.7,0c-1.5,0-2-0.4-1.9-1.9
	c0.1-0.9,0-1.9,0-2.8c0-71.1,0-142.2,0-213.4c0-5.1,0-5.1,5.1-5.1c6.2,0,12.3,0.1,18.5,0c1.7,0,2,0.6,2,2.1
	C1195.5,168,1195.5,204.4,1195.5,240.9z"/>
<path class="st1" d="M1104.3,278.8c0-23.7,0-47.4,0-71.1c0-2,0.6-2.3,2.4-2.3c7,0.1,13.9,0.2,20.9,0c2,0,2.4,0.6,2.4,2.4
	c0,46.2,0,92.4,0,138.6c0,1.9,0.9,4.4-0.5,5.7c-1.3,1.2-3.6,0.3-5.5,0.3c-5.8,0.1-11.7,0-17.5,0.1c-1.6,0-2.1-0.3-2.1-2
	C1104.3,326.6,1104.3,302.7,1104.3,278.8z"/>
<path class="st1" d="M1117.3,190.4c-7.4,0.1-12.8-5.3-13-12.5c-0.3-8,6-12.8,13.4-13.1c6.7-0.2,12,5.9,12.2,13.5
	C1130.1,184.9,1123.3,190.7,1117.3,190.4z"/>
<path class="st0" d="M743.2,266.2c-13.8,0-27.5,0-41.3,0c-3.4,0-4.2-1.2-3.1-4.4c7-19.2,28.1-33.8,50.5-30.3
	c17.2,2.7,29.6,11.9,37.2,27.5c0.5,1.1,0.9,2.2,1.3,3.3c0.9,2.6,0,3.9-2.7,3.9c-8.1,0-16.1,0-24.2,0
	C755,266.2,749.1,266.2,743.2,266.2z M743.2,261.7c12.5,0,25,0,37.6,0c1.9,0,1.9-0.5,1.2-1.9c-3.9-7.9-9.6-14.4-17.4-18.5
	c-15.4-8.4-33.2-7.9-47.2,3.2c-5.3,4.2-9.8,9-12.7,15.3c-0.8,1.7-0.4,2,1.4,2C718.4,261.7,730.8,261.7,743.2,261.7z"/>
</svg>
